<svg width="35" height="35" viewBox="0 0 35 35" fill="none" xmlns="http://www.w3.org/2000/svg">
<path d="M18.0445 18.4399C18.4726 18.0138 18.4741 17.3212 18.0478 16.8932C17.6216 16.4652 16.929 16.4637 16.501 16.8898L18.0445 18.4399ZM11.2422 14.9946L12.0152 14.2208L12.014 14.2196L11.2422 14.9946ZM16.6801 9.90822C17.1881 10.2349 17.865 10.0877 18.1915 9.57961C18.5181 9.07149 18.371 8.39476 17.8629 8.06813L16.6801 9.90822ZM20.0304 23.8254L19.2575 24.5993C19.2744 24.6162 19.2918 24.6326 19.3099 24.6483L20.0304 23.8254ZM26.904 17.0712C26.5754 16.5643 25.8982 16.4198 25.3913 16.7484C24.8843 17.0771 24.7398 17.7543 25.0684 18.2611L26.904 17.0712ZM20.6938 24.4064L21.4656 23.6313L21.4406 23.6066L21.4144 23.5836L20.6938 24.4064ZM8.86413 19.5667C9.29153 19.1397 9.29195 18.4473 8.86508 18.0199C8.4382 17.5925 7.74568 17.592 7.31829 18.019L8.86413 19.5667ZM4.37846 19.5667C4.80586 19.1397 4.80628 18.4473 4.37941 18.0199C3.95253 17.5925 3.26001 17.592 2.83261 18.019L4.37846 19.5667ZM16.9251 27.6891C17.3525 27.2621 17.3529 26.5697 16.9259 26.1422C16.4991 25.7148 15.8067 25.7144 15.3792 26.1414L16.9251 27.6891ZM16.9251 32.1692C17.3525 31.7424 17.3529 31.0498 16.9259 30.6225C16.4991 30.1951 15.8067 30.1946 15.3792 30.6215L16.9251 32.1692ZM15.5062 25.0626C15.9334 24.6355 15.9334 23.9429 15.5062 23.5158C15.0791 23.0886 14.3865 23.0886 13.9594 23.5158L15.5062 25.0626ZM10.8933 26.5818C10.4662 27.0089 10.4662 27.7015 10.8933 28.1286C11.3205 28.5558 12.013 28.5558 12.4401 28.1286L10.8933 26.5818ZM11.4583 21.0195C11.8854 20.5924 11.8854 19.9 11.4583 19.4728C11.0311 19.0457 10.3386 19.0457 9.91148 19.4728L11.4583 21.0195ZM6.82432 22.56C6.39719 22.9871 6.39719 23.6795 6.82432 24.1067C7.25147 24.5338 7.94398 24.5338 8.37112 24.1067L6.82432 22.56ZM10.8799 25.6397C11.3117 25.2174 11.3194 24.5249 10.8971 24.093C10.4747 23.6612 9.78224 23.6534 9.35037 24.0758L10.8799 25.6397ZM6.85725 26.5141C6.42538 26.9364 6.41768 27.6289 6.84004 28.0608C7.26239 28.4926 7.95488 28.5004 8.38673 28.078L6.85725 26.5141ZM29.1465 12.9732L21.7284 20.3601L23.2719 21.9101L30.69 14.5232L29.1465 12.9732ZM16.3021 20.3601L14.5597 18.625L13.0162 20.175L14.7586 21.9101L16.3021 20.3601ZM14.5597 13.2347L21.9779 5.84778L20.4342 4.29772L13.0162 11.6846L14.5597 13.2347ZM26.4334 4.01041H27.1551V1.82291H26.4334V4.01041ZM30.9897 7.82423V8.54293L33.1772 8.54294V7.82423H30.9897ZM27.1551 4.01041C28.3475 4.01041 29.1322 4.01272 29.7138 4.09058C30.2644 4.1643 30.4663 4.28731 30.5899 4.41039L32.1334 2.86033C31.5354 2.26472 30.7956 2.02839 30.0041 1.92243C29.2436 1.82061 28.2859 1.82291 27.1551 1.82291V4.01041ZM33.1772 7.82423C33.1772 6.69856 33.1795 5.7438 33.0771 4.98543C32.9704 4.1951 32.7322 3.45658 32.1334 2.86033L30.5899 4.41039C30.7129 4.53283 30.8355 4.73204 30.9093 5.27811C30.9873 5.85613 30.9897 6.63646 30.9897 7.82423H33.1772ZM14.5597 18.625C13.7164 17.7852 13.1635 17.2314 12.808 16.7673C12.4717 16.3284 12.4175 16.1013 12.4175 15.9298H10.23C10.23 16.7748 10.5866 17.4649 11.0716 18.0978C11.5374 18.7059 12.2167 19.3789 13.0162 20.175L14.5597 18.625ZM14.7586 21.9101C15.5582 22.7062 16.234 23.3826 16.8444 23.8464C17.4802 24.3294 18.1709 24.6826 19.0151 24.6826V22.4951C18.8387 22.4951 18.6084 22.4394 18.1677 22.1045C17.7016 21.7503 17.1454 21.1998 16.3021 20.3601L14.7586 21.9101ZM30.69 14.5232C31.6948 13.5226 32.4274 12.8206 32.8119 11.8961L30.7922 11.056C30.614 11.4843 30.2783 11.8461 29.1465 12.9732L30.69 14.5232ZM30.9897 8.54293C30.9897 10.1369 30.9701 10.6281 30.7922 11.056L32.8119 11.8961C33.1967 10.9712 33.1772 9.95789 33.1772 8.54294L30.9897 8.54293ZM21.9779 5.84778C23.1091 4.72125 23.4731 4.38607 23.9049 4.20796L23.0708 2.18572C22.144 2.56796 21.4396 3.2966 20.4342 4.29772L21.9779 5.84778ZM26.4334 1.82291C25.0115 1.82291 23.997 1.80369 23.0708 2.18572L23.9049 4.20796C24.3372 4.02964 24.8336 4.01041 26.4334 4.01041V1.82291ZM15.4308 21.0426L18.0445 18.4399L16.501 16.8898L13.8874 19.4925L15.4308 21.0426ZM17.8629 8.06813L17.0646 7.55495L15.8818 9.39505L16.6801 9.90822L17.8629 8.06813ZM17.0646 7.55495C16.278 7.0493 15.6363 6.6359 15.0826 6.33791C14.5152 6.03254 13.9747 5.811 13.3727 5.72215L13.0533 7.8862C13.3093 7.924 13.5982 8.02315 14.046 8.26415C14.5075 8.51257 15.0668 8.87124 15.8818 9.39505L17.0646 7.55495ZM7.76601 11.3243C8.48096 10.6124 9.24483 9.85206 9.93064 9.22719C10.2732 8.91502 10.5833 8.64872 10.8477 8.44521C11.129 8.22866 11.2967 8.132 11.3642 8.10403L10.5267 6.08319C10.1824 6.22587 9.828 6.46957 9.51331 6.71185C9.18169 6.96713 8.82193 7.27804 8.45736 7.61022C7.72879 8.27406 6.92887 9.07089 6.22251 9.77426L7.76601 11.3243ZM13.3727 5.72215C12.4146 5.58073 11.4305 5.70867 10.5267 6.08319L11.3642 8.10403C11.913 7.87659 12.498 7.80424 13.0533 7.8862L13.3727 5.72215ZM6.92082 13.1538L7.40122 13.3439L8.20619 11.3099L7.72579 11.1198L6.92082 13.1538ZM9.25154 14.5559L10.4705 15.7697L12.014 14.2196L10.7951 13.0058L9.25154 14.5559ZM7.40122 13.3439C7.48231 13.376 7.51359 13.3884 7.54382 13.4009L8.37626 11.3779C8.3292 11.3586 8.28203 11.3399 8.20619 11.3099L7.40122 13.3439ZM10.7951 13.0058C10.7373 12.9483 10.7015 12.9126 10.665 12.8772L9.14262 14.4481C9.16604 14.4708 9.18987 14.4945 9.25154 14.5559L10.7951 13.0058ZM7.54382 13.4009C8.13898 13.6458 8.68155 14.0012 9.14262 14.4481L10.665 12.8772C10.0044 12.237 9.22759 11.7283 8.37626 11.3779L7.54382 13.4009ZM6.22251 9.77426C5.16675 10.8255 5.54024 12.6074 6.92082 13.1538L7.72579 11.1198C7.80473 11.151 7.83134 11.2593 7.76601 11.3243L6.22251 9.77426ZM25.0684 18.2611L25.5838 19.0562L27.4194 17.8662L26.904 17.0712L25.0684 18.2611ZM23.6467 27.1251L23.5401 27.2313L25.0836 28.7814L25.1903 28.6752L23.6467 27.1251ZM25.5838 19.0562C26.1099 19.8676 26.4698 20.4244 26.7192 20.8838C26.961 21.3293 27.06 21.6157 27.0977 21.8686L29.2612 21.5466C29.1717 20.945 28.9486 20.4056 28.6417 19.8402C28.3424 19.2886 27.927 18.6493 27.4194 17.8662L25.5838 19.0562ZM25.1903 28.6752C25.8966 27.9719 26.6968 27.1752 27.3635 26.4496C27.697 26.0867 28.0094 25.7284 28.2658 25.398C28.509 25.0848 28.7542 24.7313 28.898 24.3874L26.8796 23.5438C26.8521 23.61 26.7554 23.7764 26.538 24.0565C26.3336 24.3197 26.0662 24.6285 25.7526 24.9696C25.1253 25.6525 24.3617 26.4132 23.6467 27.1251L25.1903 28.6752ZM27.0977 21.8686C27.1796 22.419 27.1073 22.9991 26.8796 23.5438L28.898 24.3874C29.2748 23.4857 29.4037 22.5033 29.2612 21.5466L27.0977 21.8686ZM21.4144 23.5836L20.751 23.0026L19.3099 24.6483L19.9733 25.2292L21.4144 23.5836ZM23.8997 27.3162C23.6284 26.6369 23.4613 26.2128 23.241 25.8115L21.3235 26.8645C21.4646 27.1214 21.5779 27.4003 21.8679 28.127L23.8997 27.3162ZM19.9221 25.1813C20.4773 25.7343 20.6899 25.9486 20.871 26.1796L22.592 24.8291C22.3094 24.4689 21.9847 24.1482 21.4656 23.6313L19.9221 25.1813ZM23.241 25.8115C23.0517 25.467 22.8347 25.1385 22.592 24.8291L20.871 26.1796C21.0403 26.3953 21.1916 26.6244 21.3235 26.8645L23.241 25.8115ZM25.2132 11.6846C24.6776 12.2179 23.8074 12.2179 23.2719 11.6846L21.7284 13.2347C23.1174 14.6179 25.3676 14.6179 26.7567 13.2347L25.2132 11.6846ZM23.2719 11.6846C22.7388 11.1539 22.7388 10.2953 23.2719 9.7645L21.7284 8.21444C20.3367 9.60021 20.3367 11.8489 21.7284 13.2347L23.2719 11.6846ZM23.2719 9.7645C23.8074 9.2312 24.6776 9.2312 25.2132 9.7645L26.7567 8.21444C25.3676 6.83122 23.1174 6.83122 21.7284 8.21444L23.2719 9.7645ZM25.2132 9.7645C25.7462 10.2953 25.7462 11.1539 25.2132 11.6846L26.7567 13.2347C28.1482 11.8489 28.1482 9.60021 26.7567 8.21444L25.2132 9.7645ZM23.5401 27.2313C23.5988 27.1727 23.6776 27.1597 23.7321 27.1705C23.787 27.1816 23.8641 27.2269 23.8997 27.3162L21.8679 28.127C22.3942 29.4455 24.1001 29.7606 25.0836 28.7814L23.5401 27.2313ZM21.7284 20.3601C21.0782 21.0074 20.5942 21.4885 20.1795 21.8461C19.7631 22.2055 19.4946 22.3695 19.296 22.4426L20.0513 24.4956C20.6178 24.2871 21.1229 23.9213 21.6083 23.5026C22.0956 23.0824 22.6422 22.5372 23.2719 21.9101L21.7284 20.3601ZM19.296 22.4426C19.1935 22.4802 19.1054 22.4951 19.0151 22.4951V24.6826C19.3761 24.6826 19.7195 24.6175 20.0513 24.4956L19.296 22.4426ZM20.8033 23.0516L20.4465 22.6952L18.9007 24.2429L19.2575 24.5993L20.8033 23.0516ZM13.0162 11.6846C12.4015 12.2967 11.8657 12.8294 11.449 13.3045C11.0342 13.7772 10.67 14.2662 10.4512 14.8095L12.4804 15.6265C12.5614 15.4252 12.7341 15.1566 13.0933 14.7471C13.4506 14.3399 13.9261 13.8656 14.5597 13.2347L13.0162 11.6846ZM10.4512 14.8095C10.3079 15.1654 10.23 15.5362 10.23 15.9298H12.4175C12.4175 15.8353 12.4343 15.741 12.4804 15.6265L10.4512 14.8095ZM10.4693 15.7685L10.6929 15.9918L12.2388 14.4441L12.0152 14.2208L10.4693 15.7685ZM7.31829 18.019L4.85117 20.483L6.39701 22.0307L8.86413 19.5667L7.31829 18.019ZM4.15418 19.7907L4.37846 19.5667L2.83261 18.019L2.60832 18.243L4.15418 19.7907ZM4.15418 20.483C3.9626 20.2917 3.9626 19.9821 4.15418 19.7907L2.60832 18.243C1.56122 19.2888 1.56122 20.985 2.60832 22.0307L4.15418 20.483ZM4.85117 20.483C4.65884 20.6751 4.34649 20.6751 4.15418 20.483L2.60832 22.0307C3.65469 23.0759 5.35064 23.0759 6.39701 22.0307L4.85117 20.483ZM15.3792 26.1414L12.9121 28.6054L14.4579 30.1531L16.9251 27.6891L15.3792 26.1414ZM16.7008 32.3932L16.9251 32.1692L15.3792 30.6215L15.1549 30.8455L16.7008 32.3932ZM12.9121 32.3932C13.9584 33.4384 15.6544 33.4384 16.7008 32.3932L15.1549 30.8455C14.9626 31.0376 14.6502 31.0376 14.4579 30.8455L12.9121 32.3932ZM12.9121 28.6054C11.865 29.6513 11.865 31.3475 12.9121 32.3932L14.4579 30.8455C14.2664 30.6542 14.2664 30.3446 14.4579 30.1531L12.9121 28.6054ZM13.9594 23.5158L10.8933 26.5818L12.4401 28.1286L15.5062 25.0626L13.9594 23.5158ZM9.91148 19.4728L6.82432 22.56L8.37112 24.1067L11.4583 21.0195L9.91148 19.4728ZM9.35037 24.0758L6.85725 26.5141L8.38673 28.078L10.8799 25.6397L9.35037 24.0758Z" fill="#1C274C"/>
</svg>
