<svg width="55" height="55" viewBox="0 0 55 55" fill="none" xmlns="http://www.w3.org/2000/svg">
<path d="M9.88672 42.432V43.392H6.13072V51H5.05072V42.432H9.88672ZM15.3808 51H14.3128V45.444H12.4168C12.3368 46.46 12.2368 47.328 12.1168 48.048C11.9968 48.76 11.8448 49.34 11.6608 49.788C11.4768 50.236 11.2568 50.564 11.0008 50.772C10.7448 50.98 10.4448 51.084 10.1008 51.084C9.99684 51.084 9.89284 51.076 9.78884 51.06C9.69284 51.052 9.61284 51.032 9.54884 51V50.208C9.59684 50.224 9.64884 50.236 9.70484 50.244C9.76084 50.252 9.81684 50.256 9.87284 50.256C10.0488 50.256 10.2088 50.184 10.3528 50.04C10.4968 49.896 10.6248 49.676 10.7368 49.38C10.8568 49.084 10.9648 48.712 11.0608 48.264C11.1568 47.808 11.2408 47.272 11.3128 46.656C11.3848 46.04 11.4488 45.344 11.5048 44.568H15.3808V51ZM19.8583 44.46C20.6423 44.46 21.2223 44.632 21.5983 44.976C21.9743 45.32 22.1623 45.868 22.1623 46.62V51H21.3943L21.1903 50.088H21.1423C20.9583 50.32 20.7663 50.516 20.5663 50.676C20.3743 50.828 20.1503 50.94 19.8943 51.012C19.6463 51.084 19.3423 51.12 18.9823 51.12C18.5983 51.12 18.2503 51.052 17.9383 50.916C17.6343 50.78 17.3943 50.572 17.2183 50.292C17.0423 50.004 16.9543 49.644 16.9543 49.212C16.9543 48.572 17.2063 48.08 17.7103 47.736C18.2143 47.384 18.9903 47.192 20.0383 47.16L21.1303 47.124V46.74C21.1303 46.204 21.0143 45.832 20.7823 45.624C20.5503 45.416 20.2223 45.312 19.7983 45.312C19.4623 45.312 19.1423 45.364 18.8383 45.468C18.5343 45.564 18.2503 45.676 17.9863 45.804L17.6623 45.012C17.9423 44.86 18.2743 44.732 18.6583 44.628C19.0423 44.516 19.4423 44.46 19.8583 44.46ZM20.1703 47.892C19.3703 47.924 18.8143 48.052 18.5023 48.276C18.1983 48.5 18.0463 48.816 18.0463 49.224C18.0463 49.584 18.1543 49.848 18.3703 50.016C18.5943 50.184 18.8783 50.268 19.2223 50.268C19.7663 50.268 20.2183 50.12 20.5783 49.824C20.9383 49.52 21.1183 49.056 21.1183 48.432V47.856L20.1703 47.892ZM29.3209 46.188C29.3209 46.588 29.2009 46.9 28.9609 47.124C28.7209 47.348 28.4129 47.5 28.0369 47.58V47.628C28.4369 47.684 28.7849 47.828 29.0809 48.06C29.3769 48.284 29.5249 48.636 29.5249 49.116C29.5249 49.388 29.4729 49.64 29.3689 49.872C29.2729 50.104 29.1209 50.304 28.9129 50.472C28.7049 50.64 28.4369 50.772 28.1089 50.868C27.7809 50.956 27.3849 51 26.9209 51H24.1489V44.568H26.9089C27.3649 44.568 27.7729 44.62 28.1329 44.724C28.5009 44.82 28.7889 44.988 28.9969 45.228C29.2129 45.46 29.3209 45.78 29.3209 46.188ZM28.4329 49.116C28.4329 48.748 28.2929 48.484 28.0129 48.324C27.7329 48.164 27.3209 48.084 26.7769 48.084H25.2049V50.148H26.8009C27.3289 50.148 27.7329 50.072 28.0129 49.92C28.2929 49.76 28.4329 49.492 28.4329 49.116ZM28.2529 46.32C28.2529 46.016 28.1409 45.796 27.9169 45.66C27.7009 45.516 27.3449 45.444 26.8489 45.444H25.2049V47.208H26.6569C27.1769 47.208 27.5729 47.136 27.8449 46.992C28.1169 46.848 28.2529 46.624 28.2529 46.32ZM32.119 44.568V47.244H35.611V44.568H36.667V51H35.611V48.132H32.119V51H31.063V44.568H32.119ZM41.1396 44.46C41.9236 44.46 42.5036 44.632 42.8796 44.976C43.2556 45.32 43.4436 45.868 43.4436 46.62V51H42.6756L42.4716 50.088H42.4236C42.2396 50.32 42.0476 50.516 41.8476 50.676C41.6556 50.828 41.4316 50.94 41.1756 51.012C40.9276 51.084 40.6236 51.12 40.2636 51.12C39.8796 51.12 39.5316 51.052 39.2196 50.916C38.9156 50.78 38.6756 50.572 38.4996 50.292C38.3236 50.004 38.2356 49.644 38.2356 49.212C38.2356 48.572 38.4876 48.08 38.9916 47.736C39.4956 47.384 40.2716 47.192 41.3196 47.16L42.4116 47.124V46.74C42.4116 46.204 42.2956 45.832 42.0636 45.624C41.8316 45.416 41.5036 45.312 41.0796 45.312C40.7436 45.312 40.4236 45.364 40.1196 45.468C39.8156 45.564 39.5316 45.676 39.2676 45.804L38.9436 45.012C39.2236 44.86 39.5556 44.732 39.9396 44.628C40.3236 44.516 40.7236 44.46 41.1396 44.46ZM41.4516 47.892C40.6516 47.924 40.0956 48.052 39.7836 48.276C39.4796 48.5 39.3276 48.816 39.3276 49.224C39.3276 49.584 39.4356 49.848 39.6516 50.016C39.8756 50.184 40.1596 50.268 40.5036 50.268C41.0476 50.268 41.4996 50.12 41.8596 49.824C42.2196 49.52 42.3996 49.056 42.3996 48.432V47.856L41.4516 47.892ZM45.8262 51H44.6022L46.4382 48.3C46.1902 48.236 45.9502 48.136 45.7182 48C45.4862 47.856 45.2982 47.66 45.1542 47.412C45.0102 47.156 44.9382 46.84 44.9382 46.464C44.9382 45.848 45.1462 45.38 45.5622 45.06C45.9782 44.732 46.5302 44.568 47.2182 44.568H50.0982V51H49.0422V48.444H47.4822L45.8262 51ZM45.9582 46.476C45.9582 46.844 46.0942 47.12 46.3662 47.304C46.6462 47.48 47.0342 47.568 47.5302 47.568H49.0422V45.444H47.3262C46.8382 45.444 46.4862 45.54 46.2702 45.732C46.0622 45.924 45.9582 46.172 45.9582 46.476Z" fill="#1C274C"/>
<path opacity="0.5" d="M40.1667 17.4999C40.1667 23.9433 34.9434 29.1666 28.5 29.1666C22.0567 29.1666 16.8333 23.9433 16.8333 17.4999C16.8333 11.0566 22.0567 5.83325 28.5 5.83325C34.9434 5.83325 40.1667 11.0566 40.1667 17.4999Z" fill="#1C274C"/>
<path d="M36.8306 7.95274C38.3573 7.67076 39.756 7.57522 40.9095 7.73012C42.0329 7.88099 43.1491 8.30437 43.7613 9.28296C44.4122 10.3232 44.216 11.5311 43.7435 12.5753C43.2633 13.6364 42.4045 14.761 41.305 15.883C39.0951 18.1386 35.7109 20.5877 31.6843 22.7329C27.6562 24.879 23.6718 26.3551 20.4648 26.9907C18.8672 27.3071 17.405 27.4269 16.2025 27.284C15.0357 27.1454 13.8697 26.7257 13.2386 25.717C12.552 24.6196 12.8063 23.3396 13.3401 22.247C13.887 21.1276 14.8463 19.9344 16.0704 18.7428L16.8333 18.1074C16.8333 18.4259 16.9549 19.1416 17.0785 19.7785C17.1434 20.113 17.2089 20.4257 17.2576 20.6477C16.307 21.6179 15.6565 22.489 15.3055 23.2073C14.9012 24.0348 15.0019 24.4112 15.093 24.5567C15.1992 24.7265 15.5379 25.0021 16.4606 25.1118C17.3478 25.2172 18.5601 25.138 20.0396 24.8449C22.9869 24.2608 26.7672 22.874 30.6557 20.8022C34.5458 18.7298 37.731 16.4052 39.7426 14.3521C40.7539 13.3198 41.4189 12.4064 41.7506 11.6735C42.0898 10.9236 41.9934 10.5815 41.9069 10.4432C41.8045 10.2795 41.4853 10.0146 40.6183 9.89816C39.8288 9.79212 38.7635 9.83794 37.4638 10.0617L35.6016 8.24828C36.0957 8.10037 36.5614 7.99933 36.8306 7.95274Z" fill="#1C274C"/>
</svg>
