<svg width="55" height="53" viewBox="0 0 55 53" fill="none" xmlns="http://www.w3.org/2000/svg">
<path d="M16.9043 49H15.6083L11.7323 44.656V49H10.6523V40.432H11.7323V44.584L15.5123 40.432H16.7363L13.0163 44.596L16.9043 49ZM16.9183 42.568H18.0463L19.4383 46.228C19.5183 46.444 19.5903 46.652 19.6543 46.852C19.7263 47.052 19.7903 47.248 19.8463 47.44C19.9023 47.624 19.9463 47.804 19.9783 47.98H20.0263C20.0743 47.78 20.1503 47.52 20.2543 47.2C20.3583 46.872 20.4663 46.544 20.5783 46.216L21.8863 42.568H23.0263L20.2543 49.888C20.1023 50.288 19.9223 50.636 19.7143 50.932C19.5143 51.236 19.2663 51.468 18.9703 51.628C18.6823 51.796 18.3303 51.88 17.9143 51.88C17.7223 51.88 17.5543 51.868 17.4103 51.844C17.2663 51.828 17.1423 51.808 17.0383 51.784V50.944C17.1263 50.96 17.2303 50.976 17.3503 50.992C17.4783 51.008 17.6103 51.016 17.7463 51.016C17.9943 51.016 18.2063 50.968 18.3823 50.872C18.5663 50.784 18.7223 50.652 18.8503 50.476C18.9783 50.308 19.0863 50.108 19.1743 49.876L19.5103 49.024L16.9183 42.568ZM27.1034 42.448C27.8954 42.448 28.5314 42.724 29.0114 43.276C29.4994 43.828 29.7434 44.66 29.7434 45.772C29.7434 46.5 29.6314 47.116 29.4074 47.62C29.1914 48.116 28.8834 48.492 28.4834 48.748C28.0914 48.996 27.6274 49.12 27.0914 49.12C26.7634 49.12 26.4714 49.076 26.2154 48.988C25.9594 48.9 25.7394 48.788 25.5554 48.652C25.3794 48.508 25.2274 48.352 25.0994 48.184H25.0274C25.0434 48.32 25.0594 48.492 25.0754 48.7C25.0914 48.908 25.0994 49.088 25.0994 49.24V51.88H24.0434V42.568H24.9074L25.0514 43.444H25.0994C25.2274 43.26 25.3794 43.092 25.5554 42.94C25.7394 42.788 25.9554 42.668 26.2034 42.58C26.4594 42.492 26.7594 42.448 27.1034 42.448ZM26.9114 43.336C26.4794 43.336 26.1314 43.42 25.8674 43.588C25.6034 43.748 25.4114 43.992 25.2914 44.32C25.1714 44.648 25.1074 45.064 25.0994 45.568V45.772C25.0994 46.3 25.1554 46.748 25.2674 47.116C25.3794 47.484 25.5674 47.764 25.8314 47.956C26.1034 48.148 26.4714 48.244 26.9354 48.244C27.3274 48.244 27.6474 48.136 27.8954 47.92C28.1514 47.704 28.3394 47.412 28.4594 47.044C28.5874 46.668 28.6514 46.24 28.6514 45.76C28.6514 45.024 28.5074 44.436 28.2194 43.996C27.9394 43.556 27.5034 43.336 26.9114 43.336ZM34.0063 49.12C33.4383 49.12 32.9303 49.004 32.4823 48.772C32.0423 48.54 31.6943 48.18 31.4383 47.692C31.1903 47.204 31.0663 46.58 31.0663 45.82C31.0663 45.028 31.1983 44.384 31.4623 43.888C31.7263 43.392 32.0823 43.028 32.5303 42.796C32.9863 42.564 33.5023 42.448 34.0783 42.448C34.4063 42.448 34.7223 42.484 35.0263 42.556C35.3303 42.62 35.5783 42.7 35.7703 42.796L35.4463 43.672C35.2543 43.6 35.0303 43.532 34.7743 43.468C34.5183 43.404 34.2783 43.372 34.0543 43.372C33.6223 43.372 33.2663 43.464 32.9863 43.648C32.7063 43.832 32.4983 44.104 32.3623 44.464C32.2263 44.824 32.1583 45.272 32.1583 45.808C32.1583 46.32 32.2263 46.756 32.3623 47.116C32.4983 47.476 32.7023 47.748 32.9743 47.932C33.2463 48.116 33.5863 48.208 33.9943 48.208C34.3463 48.208 34.6543 48.172 34.9183 48.1C35.1903 48.028 35.4383 47.94 35.6623 47.836V48.772C35.4463 48.884 35.2063 48.968 34.9423 49.024C34.6863 49.088 34.3743 49.12 34.0063 49.12ZM37.1919 49V42.568H38.2479V45.208H39.9159C40.4759 45.208 40.9359 45.276 41.2959 45.412C41.6559 45.548 41.9239 45.752 42.0999 46.024C42.2759 46.288 42.3639 46.624 42.3639 47.032C42.3639 47.432 42.2759 47.78 42.0999 48.076C41.9319 48.372 41.6639 48.6 41.2959 48.76C40.9359 48.92 40.4599 49 39.8679 49H37.1919ZM39.7719 48.148C40.2279 48.148 40.5999 48.072 40.8879 47.92C41.1759 47.76 41.3199 47.484 41.3199 47.092C41.3199 46.7 41.1879 46.436 40.9239 46.3C40.6599 46.156 40.2799 46.084 39.7839 46.084H38.2479V48.148H39.7719ZM43.4319 49V42.568H44.4879V49H43.4319Z" fill="#1C274C"/>
<path d="M30.0444 18.4399C30.4726 18.0138 30.474 17.3212 30.0478 16.8932C29.6215 16.4652 28.9289 16.4637 28.5009 16.8898L30.0444 18.4399ZM23.2421 14.9946L24.0151 14.2208L24.0139 14.2196L23.2421 14.9946ZM28.68 9.90822C29.1881 10.2349 29.8649 10.0877 30.1914 9.57961C30.5181 9.07149 30.3709 8.39476 29.8628 8.06813L28.68 9.90822ZM32.0304 23.8254L31.2574 24.5993C31.2744 24.6162 31.2917 24.6326 31.3098 24.6483L32.0304 23.8254ZM38.9039 17.0712C38.5754 16.5643 37.8981 16.4198 37.3912 16.7484C36.8843 17.0771 36.7397 17.7543 37.0683 18.2611L38.9039 17.0712ZM32.6938 24.4064L33.4655 23.6313L33.4406 23.6066L33.4143 23.5836L32.6938 24.4064ZM20.8641 19.5667C21.2915 19.1397 21.2919 18.4473 20.865 18.0199C20.4381 17.5925 19.7456 17.592 19.3182 18.019L20.8641 19.5667ZM16.3784 19.5667C16.8058 19.1397 16.8062 18.4473 16.3793 18.0199C15.9524 17.5925 15.2599 17.592 14.8325 18.019L16.3784 19.5667ZM28.925 27.6891C29.3524 27.2621 29.3529 26.5697 28.9259 26.1422C28.499 25.7148 27.8066 25.7144 27.3791 26.1414L28.925 27.6891ZM28.925 32.1692C29.3524 31.7424 29.3529 31.0498 28.9259 30.6225C28.499 30.1951 27.8066 30.1946 27.3791 30.6215L28.925 32.1692ZM27.5062 25.0626C27.9333 24.6355 27.9333 23.9429 27.5062 23.5158C27.079 23.0886 26.3864 23.0886 25.9593 23.5158L27.5062 25.0626ZM22.8933 26.5818C22.4661 27.0089 22.4661 27.7015 22.8933 28.1286C23.3204 28.5558 24.0129 28.5558 24.4401 28.1286L22.8933 26.5818ZM23.4582 21.0195C23.8853 20.5924 23.8853 19.9 23.4582 19.4728C23.0311 19.0457 22.3385 19.0457 21.9114 19.4728L23.4582 21.0195ZM18.8242 22.56C18.3971 22.9871 18.3971 23.6795 18.8242 24.1067C19.2514 24.5338 19.9439 24.5338 20.371 24.1067L18.8242 22.56ZM22.8798 25.6397C23.3117 25.2174 23.3194 24.5249 22.897 24.093C22.4746 23.6612 21.7822 23.6534 21.3503 24.0758L22.8798 25.6397ZM18.8572 26.5141C18.4253 26.9364 18.4176 27.6289 18.84 28.0608C19.2623 28.4926 19.9548 28.5004 20.3867 28.078L18.8572 26.5141ZM41.1464 12.9732L33.7283 20.3601L35.2718 21.9101L42.6899 14.5232L41.1464 12.9732ZM28.302 20.3601L26.5596 18.625L25.0161 20.175L26.7585 21.9101L28.302 20.3601ZM26.5596 13.2347L33.9778 5.84778L32.4342 4.29772L25.0161 11.6846L26.5596 13.2347ZM38.4333 4.01041H39.155V1.82291H38.4333V4.01041ZM42.9896 7.82423V8.54293L45.1771 8.54294V7.82423H42.9896ZM39.155 4.01041C40.3474 4.01041 41.1321 4.01272 41.7137 4.09058C42.2644 4.1643 42.4662 4.28731 42.5899 4.41039L44.1334 2.86033C43.5353 2.26472 42.7955 2.02839 42.004 1.92243C41.2435 1.82061 40.2858 1.82291 39.155 1.82291V4.01041ZM45.1771 7.82423C45.1771 6.69856 45.1794 5.7438 45.077 4.98543C44.9703 4.1951 44.7321 3.45658 44.1334 2.86033L42.5899 4.41039C42.7128 4.53283 42.8354 4.73204 42.9092 5.27811C42.9873 5.85613 42.9896 6.63646 42.9896 7.82423H45.1771ZM26.5596 18.625C25.7163 17.7852 25.1635 17.2314 24.8079 16.7673C24.4716 16.3284 24.4174 16.1013 24.4174 15.9298H22.2299C22.2299 16.7748 22.5865 17.4649 23.0715 18.0978C23.5374 18.7059 24.2166 19.3789 25.0161 20.175L26.5596 18.625ZM26.7585 21.9101C27.5581 22.7062 28.2339 23.3826 28.8443 23.8464C29.4802 24.3294 30.1708 24.6826 31.0151 24.6826V22.4951C30.8386 22.4951 30.6083 22.4394 30.1676 22.1045C29.7015 21.7503 29.1453 21.1998 28.302 20.3601L26.7585 21.9101ZM42.6899 14.5232C43.6947 13.5226 44.4274 12.8206 44.8118 11.8961L42.7921 11.056C42.6139 11.4843 42.2782 11.8461 41.1464 12.9732L42.6899 14.5232ZM42.9896 8.54293C42.9896 10.1369 42.97 10.6281 42.7921 11.056L44.8118 11.8961C45.1966 10.9712 45.1771 9.95789 45.1771 8.54294L42.9896 8.54293ZM33.9778 5.84778C35.109 4.72125 35.473 4.38607 35.9049 4.20796L35.0707 2.18572C34.1439 2.56796 33.4395 3.2966 32.4342 4.29772L33.9778 5.84778ZM38.4333 1.82291C37.0114 1.82291 35.9969 1.80369 35.0707 2.18572L35.9049 4.20796C36.3371 4.02964 36.8335 4.01041 38.4333 4.01041V1.82291ZM27.4308 21.0426L30.0444 18.4399L28.5009 16.8898L25.8873 19.4925L27.4308 21.0426ZM29.8628 8.06813L29.0645 7.55495L27.8817 9.39505L28.68 9.90822L29.8628 8.06813ZM29.0645 7.55495C28.2779 7.0493 27.6363 6.6359 27.0825 6.33791C26.5152 6.03254 25.9746 5.811 25.3726 5.72215L25.0532 7.8862C25.3092 7.924 25.5981 8.02315 26.0459 8.26415C26.5074 8.51257 27.0668 8.87124 27.8817 9.39505L29.0645 7.55495ZM19.7659 11.3243C20.4809 10.6124 21.2448 9.85206 21.9306 9.22719C22.2732 8.91502 22.5833 8.64872 22.8476 8.44521C23.1289 8.22866 23.2966 8.132 23.3641 8.10403L22.5266 6.08319C22.1823 6.22587 21.8279 6.46957 21.5132 6.71185C21.1816 6.96713 20.8219 7.27804 20.4573 7.61022C19.7287 8.27406 18.9288 9.07089 18.2224 9.77426L19.7659 11.3243ZM25.3726 5.72215C24.4145 5.58073 23.4304 5.70867 22.5266 6.08319L23.3641 8.10403C23.9129 7.87659 24.4979 7.80424 25.0532 7.8862L25.3726 5.72215ZM18.9207 13.1538L19.4011 13.3439L20.2061 11.3099L19.7257 11.1198L18.9207 13.1538ZM21.2515 14.5559L22.4704 15.7697L24.0139 14.2196L22.795 13.0058L21.2515 14.5559ZM19.4011 13.3439C19.4822 13.376 19.5135 13.3884 19.5437 13.4009L20.3762 11.3779C20.3291 11.3586 20.2819 11.3399 20.2061 11.3099L19.4011 13.3439ZM22.795 13.0058C22.7373 12.9483 22.7014 12.9126 22.6649 12.8772L21.1425 14.4481C21.166 14.4708 21.1898 14.4945 21.2515 14.5559L22.795 13.0058ZM19.5437 13.4009C20.1389 13.6458 20.6815 14.0012 21.1425 14.4481L22.6649 12.8772C22.0043 12.237 21.2275 11.7283 20.3762 11.3779L19.5437 13.4009ZM18.2224 9.77426C17.1667 10.8255 17.5402 12.6074 18.9207 13.1538L19.7257 11.1198C19.8047 11.151 19.8313 11.2593 19.7659 11.3243L18.2224 9.77426ZM37.0683 18.2611L37.5837 19.0562L39.4193 17.8662L38.9039 17.0712L37.0683 18.2611ZM35.6466 27.1251L35.54 27.2313L37.0835 28.7814L37.1902 28.6752L35.6466 27.1251ZM37.5837 19.0562C38.1099 19.8676 38.4698 20.4244 38.7191 20.8838C38.9609 21.3293 39.06 21.6157 39.0976 21.8686L41.2612 21.5466C41.1716 20.945 40.9485 20.4056 40.6417 19.8402C40.3423 19.2886 39.9269 18.6493 39.4193 17.8662L37.5837 19.0562ZM37.1902 28.6752C37.8965 27.9719 38.6967 27.1752 39.3634 26.4496C39.697 26.0867 40.0093 25.7284 40.2657 25.398C40.509 25.0848 40.7541 24.7313 40.8979 24.3874L38.8796 23.5438C38.852 23.61 38.7553 23.7764 38.5379 24.0565C38.3336 24.3197 38.0661 24.6285 37.7526 24.9696C37.1252 25.6525 36.3616 26.4132 35.6466 27.1251L37.1902 28.6752ZM39.0976 21.8686C39.1795 22.419 39.1072 22.9991 38.8796 23.5438L40.8979 24.3874C41.2747 23.4857 41.4036 22.5033 41.2612 21.5466L39.0976 21.8686ZM33.4143 23.5836L32.7509 23.0026L31.3098 24.6483L31.9732 25.2292L33.4143 23.5836ZM35.8996 27.3162C35.6284 26.6369 35.4612 26.2128 35.2409 25.8115L33.3235 26.8645C33.4645 27.1214 33.5778 27.4003 33.8679 28.127L35.8996 27.3162ZM31.922 25.1813C32.4772 25.7343 32.6898 25.9486 32.8709 26.1796L34.5919 24.8291C34.3093 24.4689 33.9847 24.1482 33.4655 23.6313L31.922 25.1813ZM35.2409 25.8115C35.0516 25.467 34.8346 25.1385 34.5919 24.8291L32.8709 26.1796C33.0403 26.3953 33.1915 26.6244 33.3235 26.8645L35.2409 25.8115ZM37.2131 11.6846C36.6775 12.2179 35.8073 12.2179 35.2718 11.6846L33.7283 13.2347C35.1174 14.6179 37.3676 14.6179 38.7566 13.2347L37.2131 11.6846ZM35.2718 11.6846C34.7388 11.1539 34.7388 10.2953 35.2718 9.7645L33.7283 8.21444C32.3366 9.60021 32.3366 11.8489 33.7283 13.2347L35.2718 11.6846ZM35.2718 9.7645C35.8073 9.2312 36.6775 9.2312 37.2131 9.7645L38.7566 8.21444C37.3676 6.83122 35.1174 6.83122 33.7283 8.21444L35.2718 9.7645ZM37.2131 9.7645C37.7461 10.2953 37.7461 11.1539 37.2131 11.6846L38.7566 13.2347C40.1482 11.8489 40.1482 9.60021 38.7566 8.21444L37.2131 9.7645ZM35.54 27.2313C35.5988 27.1727 35.6775 27.1597 35.732 27.1705C35.7869 27.1816 35.864 27.2269 35.8996 27.3162L33.8679 28.127C34.3942 29.4455 36.1 29.7606 37.0835 28.7814L35.54 27.2313ZM33.7283 20.3601C33.0782 21.0074 32.5941 21.4885 32.1794 21.8461C31.763 22.2055 31.4946 22.3695 31.2959 22.4426L32.0512 24.4956C32.6178 24.2871 33.1228 23.9213 33.6083 23.5026C34.0955 23.0824 34.6421 22.5372 35.2718 21.9101L33.7283 20.3601ZM31.2959 22.4426C31.1934 22.4802 31.1053 22.4951 31.0151 22.4951V24.6826C31.376 24.6826 31.7194 24.6175 32.0512 24.4956L31.2959 22.4426ZM32.8033 23.0516L32.4464 22.6952L30.9006 24.2429L31.2574 24.5993L32.8033 23.0516ZM25.0161 11.6846C24.4014 12.2967 23.8657 12.8294 23.4489 13.3045C23.0341 13.7772 22.6699 14.2662 22.4511 14.8095L24.4804 15.6265C24.5614 15.4252 24.734 15.1566 25.0933 14.7471C25.4505 14.3399 25.926 13.8656 26.5596 13.2347L25.0161 11.6846ZM22.4511 14.8095C22.3079 15.1654 22.2299 15.5362 22.2299 15.9298H24.4174C24.4174 15.8353 24.4342 15.741 24.4804 15.6265L22.4511 14.8095ZM22.4692 15.7685L22.6928 15.9918L24.2387 14.4441L24.0151 14.2208L22.4692 15.7685ZM19.3182 18.019L16.8511 20.483L18.3969 22.0307L20.8641 19.5667L19.3182 18.019ZM16.1541 19.7907L16.3784 19.5667L14.8325 18.019L14.6082 18.243L16.1541 19.7907ZM16.1541 20.483C15.9625 20.2917 15.9625 19.9821 16.1541 19.7907L14.6082 18.243C13.5611 19.2888 13.5611 20.985 14.6082 22.0307L16.1541 20.483ZM16.8511 20.483C16.6588 20.6751 16.3464 20.6751 16.1541 20.483L14.6082 22.0307C15.6546 23.0759 17.3506 23.0759 18.3969 22.0307L16.8511 20.483ZM27.3791 26.1414L24.912 28.6054L26.4579 30.1531L28.925 27.6891L27.3791 26.1414ZM28.7007 32.3932L28.925 32.1692L27.3791 30.6215L27.1549 30.8455L28.7007 32.3932ZM24.912 32.3932C25.9584 33.4384 27.6543 33.4384 28.7007 32.3932L27.1549 30.8455C26.9625 31.0376 26.6501 31.0376 26.4579 30.8455L24.912 32.3932ZM24.912 28.6054C23.8649 29.6513 23.8649 31.3475 24.912 32.3932L26.4579 30.8455C26.2663 30.6542 26.2663 30.3446 26.4579 30.1531L24.912 28.6054ZM25.9593 23.5158L22.8933 26.5818L24.4401 28.1286L27.5062 25.0626L25.9593 23.5158ZM21.9114 19.4728L18.8242 22.56L20.371 24.1067L23.4582 21.0195L21.9114 19.4728ZM21.3503 24.0758L18.8572 26.5141L20.3867 28.078L22.8798 25.6397L21.3503 24.0758Z" fill="#1C274C"/>
</svg>
