<svg width="55" height="55" viewBox="0 0 55 55" fill="none" xmlns="http://www.w3.org/2000/svg">
<path d="M6.41052 42.432C7.53052 42.432 8.34652 42.652 8.85852 43.092C9.37052 43.532 9.62652 44.152 9.62652 44.952C9.62652 45.304 9.56652 45.644 9.44652 45.972C9.33452 46.292 9.14652 46.58 8.88252 46.836C8.61852 47.092 8.26652 47.296 7.82652 47.448C7.38652 47.592 6.84652 47.664 6.20652 47.664H5.22252V51H4.14252V42.432H6.41052ZM6.31452 43.356H5.22252V46.74H6.08652C6.63052 46.74 7.08252 46.684 7.44252 46.572C7.80252 46.452 8.07052 46.264 8.24652 46.008C8.42252 45.752 8.51052 45.416 8.51052 45C8.51052 44.448 8.33452 44.036 7.98252 43.764C7.63052 43.492 7.07452 43.356 6.31452 43.356ZM13.7481 44.448C14.3001 44.448 14.7721 44.568 15.1641 44.808C15.5641 45.048 15.8681 45.388 16.0761 45.828C16.2921 46.26 16.4001 46.768 16.4001 47.352V47.988H11.9961C12.0121 48.716 12.1961 49.272 12.5481 49.656C12.9081 50.032 13.4081 50.22 14.0481 50.22C14.4561 50.22 14.8161 50.184 15.1281 50.112C15.4481 50.032 15.7761 49.92 16.1121 49.776V50.7C15.7841 50.844 15.4601 50.948 15.1401 51.012C14.8201 51.084 14.4401 51.12 14.0001 51.12C13.3921 51.12 12.8521 50.996 12.3801 50.748C11.9161 50.5 11.5521 50.132 11.2881 49.644C11.0321 49.148 10.9041 48.544 10.9041 47.832C10.9041 47.128 11.0201 46.524 11.2521 46.02C11.4921 45.516 11.8241 45.128 12.2481 44.856C12.6801 44.584 13.1801 44.448 13.7481 44.448ZM13.7361 45.312C13.2321 45.312 12.8321 45.476 12.5361 45.804C12.2481 46.124 12.0761 46.572 12.0201 47.148H15.2961C15.2961 46.78 15.2401 46.46 15.1281 46.188C15.0161 45.916 14.8441 45.704 14.6121 45.552C14.3881 45.392 14.0961 45.312 13.7361 45.312ZM25.7536 44.568L23.1016 47.688L25.9816 51H24.7816L21.9976 47.736V51H21.0136V47.736L18.2296 51H17.0296L19.9096 47.688L17.2576 44.568H18.4096L21.0136 47.688V44.568H21.9976V47.688L24.6136 44.568H25.7536ZM28.0336 48.492C28.0336 48.564 28.0296 48.668 28.0216 48.804C28.0216 48.932 28.0176 49.072 28.0096 49.224C28.0016 49.368 27.9936 49.508 27.9856 49.644C27.9776 49.772 27.9696 49.876 27.9616 49.956L31.4056 44.568H32.7016V51H31.7176V47.208C31.7176 47.08 31.7176 46.912 31.7176 46.704C31.7256 46.496 31.7336 46.292 31.7416 46.092C31.7496 45.884 31.7576 45.728 31.7656 45.624L28.3456 51H27.0376V44.568H28.0336V48.492ZM41.6485 44.568V51H40.7005V46.896C40.7005 46.728 40.7045 46.552 40.7125 46.368C40.7285 46.184 40.7445 46.004 40.7605 45.828H40.7245L38.6245 51H37.7365L35.6965 45.828H35.6605C35.6765 46.004 35.6845 46.184 35.6845 46.368C35.6925 46.552 35.6965 46.74 35.6965 46.932V51H34.7485V44.568H36.1525L38.1805 49.74L40.2445 44.568H41.6485ZM43.7016 51V44.568H44.7576V47.208H46.4256C46.9856 47.208 47.4456 47.276 47.8056 47.412C48.1656 47.548 48.4336 47.752 48.6096 48.024C48.7856 48.288 48.8736 48.624 48.8736 49.032C48.8736 49.432 48.7856 49.78 48.6096 50.076C48.4416 50.372 48.1736 50.6 47.8056 50.76C47.4456 50.92 46.9696 51 46.3776 51H43.7016ZM46.2816 50.148C46.7376 50.148 47.1096 50.072 47.3976 49.92C47.6856 49.76 47.8296 49.484 47.8296 49.092C47.8296 48.7 47.6976 48.436 47.4336 48.3C47.1696 48.156 46.7896 48.084 46.2936 48.084H44.7576V50.148H46.2816ZM49.9416 51V44.568H50.9976V51H49.9416Z" fill="#1C274C"/>
<path d="M12.9167 8.02083L14.6875 10.2083L20.9375 4.375" stroke="#1C274C" stroke-width="1.5" stroke-linecap="round" stroke-linejoin="round"/>
<path d="M12.9167 18.2291L14.6875 20.4166L20.9375 14.5833" stroke="#1C274C" stroke-width="1.5" stroke-linecap="round" stroke-linejoin="round"/>
<path d="M12.9167 28.4376L14.6875 30.6251L20.9375 24.7917" stroke="#1C274C" stroke-width="1.5" stroke-linecap="round" stroke-linejoin="round"/>
<path d="M42.0833 27.7083H27.5" stroke="#1C274C" stroke-width="1.5" stroke-linecap="round"/>
<path d="M42.0833 17.5H27.5" stroke="#1C274C" stroke-width="1.5" stroke-linecap="round"/>
<path d="M42.0833 7.29175H27.5" stroke="#1C274C" stroke-width="1.5" stroke-linecap="round"/>
</svg>
